<svg width="50" height="50" viewBox="0 0 50 50" fill="none" xmlns="http://www.w3.org/2000/svg">
<g clip-path="url(#clip0)">
<path fill="#333" d="M57,5H6V4c0-1.6543-1.3457-3-3-3S0,2.3457,0,4v54c0,0.55225,0.44727,1,1,1h4c0.55273,0,1-0.44775,1-1V43h51	c1.6543,0,3-1.3457,3-3V8C60,6.3457,58.6543,5,57,5z M4,57H2V4c0-0.55127,0.44824-1,1-1s1,0.44873,1,1v2v36V57z M58,40	c0,0.55127-0.44824,1-1,1H6V7h51c0.55176,0,1,0.44873,1,1V40z"></path><path fill="#333" d="M32,12c-6.61719,0-12,5.3833-12,12s5.38281,12,12,12s12-5.3833,12-12S38.61719,12,32,12z M32,34	c-5.51367,0-10-4.48584-10-10s4.48633-10,10-10s10,4.48584,10,10S37.51367,34,32,34z">
</path>
</g>
<defs>
<clipPath id="clip0">
<rect width="50" height="50" fill="white"/>
</clipPath>
</defs>
</svg>
