<svg xmlns="http://www.w3.org/2000/svg" viewBox="0 0 50 50" width="50" height="50" preserveAspectRatio="xMidYMid meet" style="width: 100%; height: 100%; transform: translate3d(0px, 0px, 0px);"><defs><clipPath id="__lottie_element_2"><rect width="50" height="50" x="0" y="0"></rect></clipPath><filter id="__lottie_element_7" filterUnits="objectBoundingBox" x="0%" y="0%" width="100%" height="100%"><feComponentTransfer in="SourceGraphic"><feFuncA type="table" tableValues="1.0 0.0"></feFuncA></feComponentTransfer></filter><mask id="__lottie_element_6" mask-type="alpha"><g filter="url(#__lottie_element_7)"><rect width="50" height="50" x="0" y="0" fill="#ffffff" opacity="0"></rect><g transform="matrix(1,0,0,1,0,0)" opacity="1" style="display: block;"><g opacity="1" transform="matrix(1,0,0,1,25.5,26)"><path fill="rgb(255,22,212)" fill-opacity="1" d=" M-6.5,6 C-6.5,6 -0.5,-2 -0.5,-2 C-0.5,-2 7.5,-7 7.5,-7 C7.5,-7 -3.5,-23 -3.5,-23 C-3.5,-23 -22.5,-4 -22.5,-4 C-22.5,-4 -7.5,6 -7.5,6 C-7.5,6 -6.5,6 -6.5,6z"></path></g></g></g></mask><filter id="__lottie_element_17" filterUnits="objectBoundingBox" x="0%" y="0%" width="100%" height="100%"><feComponentTransfer in="SourceGraphic"><feFuncA type="table" tableValues="1.0 0.0"></feFuncA></feComponentTransfer></filter><mask id="__lottie_element_16" mask-type="alpha"><g filter="url(#__lottie_element_17)"><rect width="50" height="50" x="0" y="0" fill="#ffffff" opacity="0"></rect><g transform="matrix(1,0,0,1,0,0)" opacity="1" style="display: none;"><g opacity="1" transform="matrix(1,0,0,1,25.5,26)"><path fill="rgb(255,22,212)" fill-opacity="1" d=" M-4.5,7 C-4.5,7 1.5,1 1.5,1 C1.5,1 7.5,-5 7.5,-5 C7.5,-5 1.5,-7 1.5,-7 C1.5,-7 -7.5,2 -7.5,2 C-7.5,2 -5.099999904632568,6 -5.099999904632568,6 C-5.099999904632568,6 -4.5,7 -4.5,7z"></path></g></g></g></mask></defs><g clip-path="url(#__lottie_element_2)"><g mask="url(#__lottie_element_16)" style="display: none;"><g transform="matrix(1,0,0,1,0,0)" opacity="1"><g opacity="1" transform="matrix(1,0,0,1,35.61800003051758,13.366000175476074)"><path stroke-linecap="butt" stroke-linejoin="miter" fill-opacity="0" stroke-miterlimit="10" stroke="rgb(0,0,0)" stroke-opacity="1" stroke-width="2" d=" M-9.118000030517578,10.133999824523926 C-9.118000030517578,10.133999824523926 -9.118000030517578,10.133999824523926 -9.118000030517578,10.133999824523926 C-12.229000091552734,7.0229997634887695 -12.229000091552734,1.9320000410079956 -9.118000030517578,-1.1799999475479126 C-9.118000030517578,-1.1799999475479126 -3.265000104904175,-7.0329999923706055 -3.265000104904175,-7.0329999923706055 C-0.15399999916553497,-10.144000053405762 4.936999797821045,-10.144000053405762 8.048999786376953,-7.0329999923706055 C11.15999984741211,-3.9210000038146973 11.15999984741211,1.1699999570846558 8.048999786376953,4.281000137329102 C8.048999786376953,4.281000137329102 2.197000026702881,10.133999824523926 2.197000026702881,10.133999824523926 C-0.9150000214576721,13.244999885559082 -6.006999969482422,13.244999885559082 -9.118000030517578,10.133999824523926z"></path></g><g opacity="1" transform="matrix(1,0,0,1,13.366000175476074,35.6349983215332)"><path stroke-linecap="butt" stroke-linejoin="miter" fill-opacity="0" stroke-miterlimit="10" stroke="rgb(0,0,0)" stroke-opacity="1" stroke-width="2" d=" M-7.0320000648498535,8.031999588012695 C-7.0320000648498535,8.031999588012695 -7.0320000648498535,8.031999588012695 -7.0320000648498535,8.031999588012695 C-10.142999649047852,4.921000003814697 -10.142999649047852,-0.17000000178813934 -7.0320000648498535,-3.2820000648498535 C-7.0320000648498535,-3.2820000648498535 -1.1790000200271606,-9.135000228881836 -1.1790000200271606,-9.135000228881836 C1.9320000410079956,-12.246000289916992 7.0229997634887695,-12.246000289916992 10.135000228881836,-9.135000228881836 C13.246000289916992,-6.0229997634887695 13.246000289916992,-0.9319999814033508 10.135000228881836,2.178999900817871 C10.135000228881836,2.178999900817871 4.2820000648498535,8.031999588012695 4.2820000648498535,8.031999588012695 C1.1699999570846558,11.142999649047852 -3.9210000038146973,11.142999649047852 -7.0320000648498535,8.031999588012695z"></path></g></g></g><g transform="matrix(1,0,0,1,0,0)" opacity="1" style="display: none;"><g opacity="1" transform="matrix(1,0,0,1,25,25)"><path stroke-linecap="round" stroke-linejoin="miter" fill-opacity="0" stroke-miterlimit="10" stroke="rgb(0,0,0)" stroke-opacity="1" stroke-width="2" d=" M6.5,-6.5 C6.5,-6.5 0.01600000075995922,-0.01600000075995922 0.01600000075995922,-0.01600000075995922 C0.01600000075995922,-0.01600000075995922 -6.5,6.5 -6.5,6.5"></path></g></g><g mask="url(#__lottie_element_6)" style="display: block;"><g transform="matrix(1,0,0,1,0,0)" opacity="1"><g opacity="1" transform="matrix(1,0,0,1,35.61800003051758,13.366000175476074)"><path stroke-linecap="butt" stroke-linejoin="miter" fill-opacity="0" stroke-miterlimit="10" stroke="rgb(0,0,0)" stroke-opacity="1" stroke-width="2" d=" M-9.942999839782715,6.961999893188477 C-9.942999839782715,6.961999893188477 -9.942999839782715,6.961999893188477 -9.942999839782715,6.961999893188477 C-12.467000007629395,3.3580000400543213 -11.583000183105469,-1.656000018119812 -7.978000164031982,-4.179999828338623 C-7.978000164031982,-4.179999828338623 -1.1979999542236328,-8.925999641418457 -1.1979999542236328,-8.925999641418457 C2.4059998989105225,-11.449999809265137 7.420000076293945,-10.565999984741211 9.944000244140625,-6.961999893188477 C12.467000007629395,-3.3580000400543213 11.583000183105469,1.656000018119812 7.979000091552734,4.179999828338623 C7.979000091552734,4.179999828338623 1.1990000009536743,8.928000450134277 1.1990000009536743,8.928000450134277 C-2.4049999713897705,11.451000213623047 -7.419000148773193,10.565999984741211 -9.942999839782715,6.961999893188477z"></path></g><g opacity="1" transform="matrix(1,0,0,1,13.366000175476074,35.6349983215332)"><path stroke-linecap="butt" stroke-linejoin="miter" fill-opacity="0" stroke-miterlimit="10" stroke="rgb(0,0,0)" stroke-opacity="1" stroke-width="2" d=" M-6.961999893188477,9.942999839782715 C-6.961999893188477,9.942999839782715 -6.961999893188477,9.942999839782715 -6.961999893188477,9.942999839782715 C-10.565999984741211,7.419000148773193 -11.451000213623047,2.4049999713897705 -8.928000450134277,-1.1990000009536743 C-8.928000450134277,-1.1990000009536743 -4.179999828338623,-7.979000091552734 -4.179999828338623,-7.979000091552734 C-1.656000018119812,-11.583000183105469 3.3580000400543213,-12.467000007629395 6.961999893188477,-9.944000244140625 C10.565999984741211,-7.420000076293945 11.449999809265137,-2.4059998989105225 8.925999641418457,1.1979999542236328 C8.925999641418457,1.1979999542236328 4.179999828338623,7.978000164031982 4.179999828338623,7.978000164031982 C1.656000018119812,11.583000183105469 -3.3580000400543213,12.467000007629395 -6.961999893188477,9.942999839782715z"></path></g></g></g><g transform="matrix(1,0,0,1,0,0)" opacity="1" style="display: block;"><g opacity="1" transform="matrix(1,0,0,1,25,25)"><path stroke-linecap="round" stroke-linejoin="miter" fill-opacity="0" stroke-miterlimit="10" stroke="rgb(0,0,0)" stroke-opacity="1" stroke-width="2" d=" M-10,-10 C-10,-10 -15.977999687194824,-15.977999687194824 -15.977999687194824,-15.977999687194824 C-15.977999687194824,-15.977999687194824 -22,-22 -22,-22"></path></g></g></g></svg>